<svg xmlns="http://www.w3.org/2000/svg" viewBox="0 0 263.99 174.86"><g id="f6c23e47-d71f-4246-aec3-fce0874a27b2" data-name="Layer 2"><g id="faa608d4-7f1b-4a20-820a-00d07121a540" data-name="Layer 1"><path d="M130.56,159.15a76.47,76.47,0,0,1-14.66-26.66,105,105,0,0,1-4.82-32.2,123.29,123.29,0,0,1,3.55-29.94A113.83,113.83,0,0,1,124.68,44a103,103,0,0,1,15.71-21.92A98.48,98.48,0,0,1,160.82,5.49,95.73,95.73,0,0,1,171.24,0H7.72A8,8,0,0,0,0,8.22V166.64a8,8,0,0,0,7.72,8.22H150.2A68.42,68.42,0,0,1,130.56,159.15Z" fill="#449dbf"/><path d="M255.18,14.56a53.83,53.83,0,0,0-11.45-7.69,63.44,63.44,0,0,0-14.33-5,76.33,76.33,0,0,0-15-1.76c-.87,0-1.71-.06-2.59-.06a88.48,88.48,0,0,0-65.12,28.07,94.21,94.21,0,0,0-14.39,20.08,105.51,105.51,0,0,0-9.28,24.31,114.47,114.47,0,0,0-3.28,27.83,95.66,95.66,0,0,0,4.4,29.53,67.65,67.65,0,0,0,13,23.67,60.38,60.38,0,0,0,21.08,15.68q12.49,5.69,28.71,5.69,19.06,0,34.14-6.59l.68-.28a73.55,73.55,0,0,0,26.48-20.14l-13.39-16.09a5.27,5.27,0,0,0-1.82-1.47,6.8,6.8,0,0,0-3.11-.64,6.61,6.61,0,0,0-3.52,1,32.6,32.6,0,0,0-3.53,2.52l-1.64,1.32-2.58,2a28.68,28.68,0,0,1-5.76,3.35,40.46,40.46,0,0,1-8.16,2.52,54.86,54.86,0,0,1-11.21,1,30.43,30.43,0,0,1-24.67-12.16,45.26,45.26,0,0,1-7.22-14.5A66.16,66.16,0,0,1,159,97.24a89.38,89.38,0,0,1,3.87-27.19,63.22,63.22,0,0,1,10.75-20.67,47.63,47.63,0,0,1,16.21-13.09A45,45,0,0,1,210,31.71a42.57,42.57,0,0,1,9.57.94c.59.13,1.15.28,1.7.43a33.83,33.83,0,0,1,5.29,1.86,25.8,25.8,0,0,1,5,3c1.41,1.1,2.69,2.1,3.82,3a26.66,26.66,0,0,0,3.35,2.29,7.26,7.26,0,0,0,3.64.94,8.48,8.48,0,0,0,4.93-1.3,16.86,16.86,0,0,0,3.29-2.93L264,24.43A55.92,55.92,0,0,0,255.18,14.56Z" fill="#fff"/><path d="M30.16,163V17h60V35.41H56.83V77.94H84.05V96.51H56.83V163Z" fill="#fff"/></g></g></svg>