<svg xmlns="http://www.w3.org/2000/svg" viewBox="0 0 334.84 338.27"><g id="a77a7548-f06f-4782-8c99-c812f77f8e8e" data-name="Layer 2"><g id="eb34310d-5d25-4591-a5bc-13a14796bd23" data-name="Layer 1"><path d="M119.12,197.25a47.45,47.45,0,0,0-10.07-6.77A55.87,55.87,0,0,0,96.44,186a67.26,67.26,0,0,0-13.16-1.55c-.76,0-1.51-.05-2.28-.05a77.85,77.85,0,0,0-57.29,24.69A83,83,0,0,0,11.05,226.8a92.53,92.53,0,0,0-8.16,21.38A100.64,100.64,0,0,0,0,272.67a84.08,84.08,0,0,0,3.88,26,59.35,59.35,0,0,0,11.41,20.82,53.12,53.12,0,0,0,18.55,13.79q11,5,25.26,5a74.51,74.51,0,0,0,30-5.79l.6-.25A64.85,64.85,0,0,0,113,314.51l-11.78-14.15a4.48,4.48,0,0,0-1.6-1.3,6,6,0,0,0-2.74-.56,5.91,5.91,0,0,0-3.1.87,27.61,27.61,0,0,0-3.1,2.23l-1.44,1.15L87,304.54a24.45,24.45,0,0,1-5.06,2.94,35.47,35.47,0,0,1-7.18,2.23,49,49,0,0,1-9.87.87,26.69,26.69,0,0,1-21.69-10.69,39.82,39.82,0,0,1-6.36-12.76A58.19,58.19,0,0,1,34.51,270a78.35,78.35,0,0,1,3.41-23.92,55.5,55.5,0,0,1,9.45-18.18,42,42,0,0,1,14.26-11.52,39.62,39.62,0,0,1,17.72-4,37.76,37.76,0,0,1,8.42.83l1.5.38a30.43,30.43,0,0,1,4.64,1.63,22.84,22.84,0,0,1,4.45,2.64l3.35,2.63a22.51,22.51,0,0,0,3,2,6.33,6.33,0,0,0,3.2.82,7.5,7.5,0,0,0,4.34-1.13,14.69,14.69,0,0,0,2.89-2.59l11.78-13.63A48.93,48.93,0,0,0,119.12,197.25Z" fill="#fff"/><path d="M191.65,227.83a70.8,70.8,0,0,0-28.83,5.78,71.53,71.53,0,0,0-22.68,15.61,70.47,70.47,0,0,0-14.87,22.88A72.51,72.51,0,0,0,120,299.74a53.32,53.32,0,0,0,2.48,17.2,34.86,34.86,0,0,0,6.61,12,26.6,26.6,0,0,0,9.5,7,27.8,27.8,0,0,0,11.16,2.32,32.29,32.29,0,0,0,17.77-5.16,55.3,55.3,0,0,0,14.67-14.26v7.64a16.56,16.56,0,0,0,.47,4,7.56,7.56,0,0,0,1.65,3.21,8,8,0,0,0,3.2,2.11,14,14,0,0,0,5,.78h17.15l13-104a77,77,0,0,0-15.5-3.72A120.16,120.16,0,0,0,191.65,227.83Zm-6.41,51.66a98.16,98.16,0,0,1-4.24,13,63.12,63.12,0,0,1-5.42,10.64,29.71,29.71,0,0,1-6.25,7.19,10.87,10.87,0,0,1-6.82,2.63,8.63,8.63,0,0,1-4.18-1,9,9,0,0,1-3.31-3.26,18.86,18.86,0,0,1-2.22-5.84,40,40,0,0,1-.83-8.78A56.56,56.56,0,0,1,154.5,277a45.21,45.21,0,0,1,7.19-14.06,35,35,0,0,1,11.1-9.55,29.5,29.5,0,0,1,14.31-3.51H189Z" fill="#fff"/><polygon points="230.7 336.62 262.31 336.62 281.11 181.96 249.5 181.96 230.7 336.62" fill="#fff"/><polygon points="303.22 181.96 284.42 336.62 316.03 336.62 334.84 181.96 303.22 181.96" fill="#fff"/><path d="M329.26.18Q332,0,334.84,0H7.1A7.36,7.36,0,0,0,0,7.56v145.7a7.5,7.5,0,0,0,5.58,7.38q-2.76.18-5.58.18H327.74a7.36,7.36,0,0,0,7.1-7.56V7.56A7.5,7.5,0,0,0,329.26.18ZM120.37,139.41H109.25V59.47H87v79.94H75.75V59.47H64.49V51.4H75.75V42.27a47.52,47.52,0,0,1,1.3-12,13,13,0,0,1,5-7.61Q85.81,20,92.81,20a39.81,39.81,0,0,1,4,.22c1.47.16,2.82.33,4,.54v8.37c-1-.2-2.06-.35-3.12-.46s-2.06-.15-3-.15c-3.35,0-5.49.92-6.4,2.74S87,36.43,87,41.2V51.4h33.35Zm.15-100.19H110.17V24.15h10.35Zm52.84,23.3a10.77,10.77,0,0,0-2.59-.69,19.84,19.84,0,0,0-2.89-.22A18.31,18.31,0,0,0,158.51,64a21.42,21.42,0,0,0-7.38,7.77v67.6H139.86v-88h11.27v12q4.26-7,9.74-10a22.1,22.1,0,0,1,10.51-3h.91a4.56,4.56,0,0,1,1.07.15Zm50.78,68.6a18.78,18.78,0,0,1-7.84,7.15,26.21,26.21,0,0,1-11.88,2.51q-10.5,0-16.75-6.77t-7.16-18.2l9.29-2.74q.91,10.05,4.72,14.7t10.66,4.64q5.79,0,8.91-3.27t3.12-9.22a16.65,16.65,0,0,0-2.59-8.6,37.66,37.66,0,0,0-8.22-9.06L194.52,91.91a42.13,42.13,0,0,1-9-10,22.78,22.78,0,0,1-3-12,20.15,20.15,0,0,1,2.67-10.74,17.93,17.93,0,0,1,7.31-6.7,24.11,24.11,0,0,1,11-2.36q10.05,0,15.22,6.47t5.64,16.68l-7.92,2.59A31.94,31.94,0,0,0,214.62,66a11.85,11.85,0,0,0-4.19-5.71A11.13,11.13,0,0,0,204,58.41a11.71,11.71,0,0,0-8.14,2.81,10,10,0,0,0-3.12,7.85,15.37,15.37,0,0,0,1.52,7,25.51,25.51,0,0,0,5.63,6.85L212.34,94a88.53,88.53,0,0,1,7,6.85,32.84,32.84,0,0,1,5.48,8.15A24.45,24.45,0,0,1,227,119.62,21.81,21.81,0,0,1,224.14,131.12Zm46.21-72.41H255.73v61.37q0,6.39,1.45,9.06t6.32,2.66a21.42,21.42,0,0,0,3-.23c1.12-.15,2.19-.28,3.2-.38v8.38c-1.52.3-3.07.53-4.64.68a46,46,0,0,1-4.65.23q-6.39,0-9.89-2.51a12.21,12.21,0,0,1-4.72-6.85,36.75,36.75,0,0,1-1.22-10V58.71H233.81V51.4h10.81V24.15h11.11V51.4h14.62Z" fill="#449dbf"/><path d="M201.27,70.16h-1.54c.81,0,1.59,0,2.38.06A7.72,7.72,0,0,0,201.27,70.16Z" fill="#449dbf"/></g></g></svg>